<svg xmlns="http://www.w3.org/2000/svg" viewBox="0 0 349.51 122"><defs><style>.cls-1{fill:#00357d;}</style></defs><g id="Layer_2" data-name="Layer 2"><g id="Layer_1-2" data-name="Layer 1"><path class="cls-1" d="M0,5.37H83.48v23H25.35V53H82v22.4H25.35v44.88H0Z"/><path class="cls-1" d="M175.09,111Q163.86,122,140.51,122t-34.43-11.13Q95,99.74,95,76.25t11-34.62Q117,30.5,140.51,30.5t34.66,11q11.16,11.06,11.16,34.7T175.09,111Zm-50.7-15.39q5.2,5.7,16.27,5.7t16.26-5.7q5.19-5.7,5.19-18.7t-5.19-18.67q-5.19-5.67-16.26-5.67t-16.27,5.75Q119.2,64,119.2,76.93T124.39,95.56Z"/><path class="cls-1" d="M225.84,76.74v43.52H201.62V33.88l18.81-1.34,2.48,9.51q2.66-4.12,10.3-7.12A53,53,0,0,1,251,31.64v23q-17.65.16-21.43,6.8A30.5,30.5,0,0,0,225.84,76.74Z"/><path class="cls-1" d="M268.69,110.73Q259.14,99.47,259.14,76T269,41.51q9.84-11,29.86-11t26.46,8.31V0h24.22V119.33L331,121l-2.48-8.85Q320.06,122,297.26,122,278.24,122,268.69,110.73Zm19.77-15.6q4.65,5.76,15.52,5.76t16.1-5.72q5.21-5.72,5.21-19.25a40.2,40.2,0,0,0-3.1-16.36q-3.09-7-19.19-7-10,0-14.62,5.27t-4.57,18.43Q283.81,89.38,288.46,95.13Z"/></g></g></svg>