<?xml version="1.0" encoding="utf-8"?>
<!-- Generator: Adobe Illustrator 23.0.2, SVG Export Plug-In . SVG Version: 6.00 Build 0)  -->
<svg version="1.1" id="Layer_1" xmlns="http://www.w3.org/2000/svg" xmlns:xlink="http://www.w3.org/1999/xlink" x="0px" y="0px"
	 viewBox="0 0 275.1 174" style="enable-background:new 0 0 275.1 174;" xml:space="preserve">
<style type="text/css">
	.st0{fill:#DF0016;}
</style>
<title>Hondafinal</title>
<path class="st0" d="M31.7,146l4.2,0.5c1.9,0.2,2.1,1.8,2.1,2.8v4.9H18.7v-4.9c0-1,0.2-2.6,2.1-2.8L25,146v-4.2H0v4.2l4.2,0.5
	c1.9,0.2,2.1,1.8,2.1,2.8v16.2c0,1-0.2,2.6-2.1,2.8L0,168.8v4.2h25v-4.2l-4.2-0.5c-1.9-0.2-2.1-1.8-2.1-2.8v-4.9h19.2v4.9
	c0,1-0.2,2.6-2.1,2.8l-4.2,0.5v4.2h25v-4.2l-4.2-0.5c-1.9-0.2-2.1-1.8-2.1-2.8v-16.2c0-1,0.2-2.6,2.1-2.8l4.2-0.5v-4.2h-25L31.7,146
	L31.7,146z"/>
<path class="st0" d="M198.2,141.8h-30.8v4.2l3.7,0.4c1.2,0,2.2,0.9,2.2,2.2c0,0.1,0,0.2,0,0.3v16.5c0,1-0.2,2.6-2.1,2.8l-4.2,0.5
	v4.2h31.2c11.2,0,20.4-4.5,20.4-15.6S209.4,141.8,198.2,141.8 M195.9,167h-10.5v-19.2h10.5c6.2,0,8.3,2.9,8.3,9.6
	S202.1,167,195.9,167"/>
<path id="b68f85b0-2f9d-4e53-9cdc-aedea5f9fe7c" class="st0" d="M271,168.3c-2-0.2-2.6-1.5-3.2-2.4l-14.4-22c-1-1.6-1.8-2.1-3.3-2.1
	h-23.6v4.2l5.7,0.6c0.9,0.2,1.5,1,1.3,1.9c0,0.3-0.2,0.5-0.3,0.7l-10.7,17.3c-0.4,0.9-1.2,1.5-2.2,1.7l-4.2,0.5v4.2H236v-4.2
	l-3.4-0.3c-1.5-0.2-2.3-1.2-1.5-2.4l1.6-2.6h19.2l1.4,2.1c1.3,1.9-0.3,2.7-1.7,2.8l-3.5,0.4v4.2h27v-4.2L271,168.3z M236,157.9
	l5.9-9.6l6.3,9.6H236z"/>
<path class="st0" d="M145.1,146l4.2,0.5c1.9,0.2,2.1,1.8,2.1,2.8v15.6l-16.5-21.8c-0.7-1-1.4-1.3-3.2-1.3h-21.4v4.2l4.2,0.5
	c1.9,0.2,2.1,1.8,2.1,2.8v16.2c0,1-0.2,2.6-2.1,2.8l-4.2,0.5v4.2h20v-4.2l-4.2-0.5c-1.9-0.2-2.1-1.8-2.1-2.8v-15.6l16.5,21.7
	c0.8,1,1.4,1.3,3.2,1.3h15.2v-23.7c0-1,0.2-2.6,2.1-2.8l4.2-0.5v-4.1h-19.9L145.1,146L145.1,146z"/>
<path class="st0" d="M83.4,140.8c-20.3,0-25.5,8.9-25.5,16.6s5.2,16.7,25.5,16.7s25.5-8.9,25.5-16.6S103.7,140.8,83.4,140.8
	 M83.4,168.1c-7.9,0-11.1-3.3-11.1-10.7s3.3-10.7,11.1-10.7s11.1,3.3,11.1,10.7S91.3,168.1,83.4,168.1"/>
<path class="st0" d="M172.1,10.3c-3.4,15.3-4.8,22.4-7.6,33.4c-2.7,10.6-4.8,20.5-8.4,25.3s-8.5,5.9-11.8,6.3
	c-2.2,0.3-4.5,0.4-6.7,0.3c-2.2,0.1-4.5,0-6.7-0.3c-3.3-0.4-8.2-1.4-11.8-6.3s-5.7-14.7-8.3-25.3c-2.8-11.1-4.2-18.1-7.6-33.4
	c0,0-3.4,0.1-4.9,0.2c-2.1,0.1-3.7,0.3-5.4,0.5c0,0,2,31.5,2.9,44.9c0.9,14,2.6,37.7,4.1,55.6c2.6,0.4,5.1,0.6,7.7,0.7
	c5,0.3,7.3,0.3,7.3,0.3c2.1-7.9,4.6-18.8,7.5-23.5c2.4-3.8,6-4.2,8.1-4.5c2.4-0.3,4.8-0.5,7.2-0.5l0,0c2.4,0,4.8,0.1,7.2,0.5
	c2.1,0.3,5.7,0.7,8.1,4.5c2.9,4.7,5.5,15.6,7.5,23.5c0,0,2.2,0,7.2-0.3c4.8-0.3,7.7-0.7,7.7-0.7c1.5-17.9,3.2-41.5,4.1-55.6
	c0.9-13.3,2.9-44.9,2.9-44.9c-1.7-0.2-3.4-0.4-5.4-0.5C175.5,10.4,172.1,10.3,172.1,10.3"/>
<path id="b46a63e4-e454-4f04-950b-428aa0b8239a" class="st0" d="M211.8,28.9c-2-20-15.4-24.2-27.1-26.2c-5.9-1-16.4-1.8-23.1-2.1
	C155.7,0.2,141.9,0,137.7,0s-18,0.2-23.9,0.6c-6.7,0.3-17.2,1.1-23.1,2.1C79,4.7,65.6,8.9,63.6,28.9C63,35.6,62.8,42.4,63,49.1
	c0.2,12.7,1.3,21.2,1.9,27.2c0.4,4.1,2.1,16.3,4.3,22.6c3,8.7,5.7,11.2,8.9,13.8c5.8,4.7,15.4,6.2,17.4,6.6
	c10.8,1.9,32.6,2.3,42.3,2.3s31.5-0.3,42.3-2.3c2-0.4,11.6-1.8,17.4-6.6c3.2-2.6,5.9-5.1,8.9-13.8c2.2-6.3,3.9-18.6,4.3-22.6
	c0.6-5.9,1.7-14.5,1.9-27.2C212.5,41.4,212.3,34.3,211.8,28.9 M204.4,62.5c-1.2,16-2.6,25.6-4.6,32.5c-1.8,6.1-4,10.1-7.2,13
	c-5.4,4.9-12.8,5.9-17.2,6.6c-9.4,1.4-25.3,1.9-37.7,1.9s-28.3-0.5-37.7-1.9c-4.4-0.7-11.8-1.7-17.2-6.6c-3.2-2.9-5.4-7-7.2-13
	c-2-6.9-3.5-16.5-4.6-32.5c-0.7-9.6-0.6-25.2,0.5-33.6C73,16.3,79.2,10,92.5,7.7c7.4-1.2,15-2,22.5-2.3c6.4-0.4,16.8-0.6,22.7-0.6
	S154,5,160.3,5.4c7.5,0.3,15.1,1.1,22.5,2.3c13.3,2.4,19.5,8.7,21.1,21.2C205,37.2,205.1,52.8,204.4,62.5"/>
</svg>
