<svg width="452" height="262" viewBox="0 0 452 262" fill="none" xmlns="http://www.w3.org/2000/svg">
<path d="M203.334 0.658162C166.667 3.9915 134.4 12.5248 110.934 25.1915C51.2002 57.3248 52.2669 107.458 113.334 138.925C144.134 154.792 181.734 162.792 226 162.792C277.6 162.792 321.734 151.725 352.8 131.058C365.867 122.392 375.734 111.858 380.934 101.325C384.134 94.6582 384.667 92.2582 384.667 81.7248C384.667 71.4582 384.134 68.6582 381.067 61.9915C366.667 31.4582 316.134 7.1915 254.134 1.1915C240.4 -0.141838 215.334 -0.408505 203.334 0.658162ZM264 15.0582C292.267 18.7915 311.067 23.8582 310.4 27.4582C309.734 30.6582 295.867 39.9915 280.267 47.7248C255.6 59.9915 220.534 71.7248 208.667 71.7248C202.667 71.7248 195.6 67.9915 193.2 63.5915C189.734 56.9248 196.8 33.8582 205.6 23.1915C213.067 14.1248 216 13.0582 234 13.0582C242.8 13.0582 256.267 13.9915 264 15.0582ZM174.667 19.3248C174.667 19.9915 170.267 26.2582 164.934 33.4582C151.6 51.0582 140.934 69.3248 126.534 98.9248C118.8 114.792 113.734 123.725 112.534 123.725C109.6 123.725 98.9335 116.125 92.1335 109.058C76.5335 93.0582 75.8669 71.9915 90.6669 55.1915C96.4002 48.7915 108.8 39.9915 120.667 33.9915C139.467 24.6582 174.667 15.0582 174.667 19.3248ZM346.667 42.3915C354 47.1915 365.334 58.7915 368.4 64.6582C380.534 87.9915 366.667 111.858 331.334 129.058C312.534 138.258 280.267 147.458 278.267 144.125C277.867 143.458 280.534 139.058 284.267 134.392C299.467 114.792 316.134 86.3915 328.8 58.3915C336 42.2582 338.134 38.3915 339.734 38.3915C340.134 38.3915 343.2 40.2582 346.667 42.3915ZM254.667 93.7248C260.667 96.7915 262.267 103.858 259.334 113.858C253.6 133.592 244.934 146.258 235.067 148.925C222.8 152.392 189.067 149.458 158 142.125C138.8 137.725 138.4 136.125 153.734 125.992C167.467 116.792 175.067 113.058 196 104.792C226.267 92.7915 245.734 89.0582 254.667 93.7248Z" fill="#0B2369"/>
<path d="M0.933333 196.658C0.4 197.058 0 211.858 0 229.325V261.058H8H16V248.391V235.725H30H44V248.391V261.058H52H60L59.7333 228.658L59.3333 196.391L51.7333 195.991L44 195.591V208.391V221.058H30H16V208.391V195.725H8.93333C4.93333 195.725 1.33333 196.125 0.933333 196.658Z" fill="#0B2369"/>
<path d="M67.0667 197.325C67.3334 198.258 73.4667 208.258 80.5334 219.591L93.4668 240.125L93.0668 250.658L92.6668 261.058H100.4H108V249.991V239.058L121.333 217.858C128.667 206.258 134.667 196.525 134.667 196.258C134.667 195.991 130.8 195.725 126 195.725H117.2L109.067 208.391C104.667 215.325 100.667 221.058 100.133 221.058C99.7334 220.925 95.8668 215.325 91.6001 208.391L83.8667 195.725H75.0667C68.6667 195.725 66.5334 196.125 67.0667 197.325Z" fill="#0B2369"/>
<path d="M141.334 228.391V261.058H167.334C203.201 261.058 201.734 262.791 201.067 221.058L200.667 196.391L193.067 195.991L185.334 195.591L185.067 221.325L184.667 247.058L171.067 247.458L157.334 247.858L157.067 222.125L156.667 196.391L149.067 195.991L141.334 195.591V228.391Z" fill="#0B2369"/>
<path d="M215.599 196.658C215.066 197.058 214.666 211.858 214.666 229.325V261.058H222.666H230.666V235.725V210.258L244.399 210.658L257.999 211.058L258.399 235.991L258.666 261.058H266.666H274.666V233.725C274.666 203.058 273.866 199.725 266.533 197.191C261.999 195.591 217.066 195.058 215.599 196.658Z" fill="#0B2369"/>
<path d="M289.334 228.391V261.058H315.334H341.467L344.667 257.591C348.001 253.991 348.001 253.725 348.001 229.458C348.001 214.391 347.467 203.858 346.534 202.125C343.734 196.925 337.601 195.725 312.667 195.725H289.334V228.391ZM332.534 212.525C334.134 216.525 333.467 244.391 331.734 246.125C330.667 247.191 325.467 247.725 317.067 247.725H304.001V229.058V210.391H317.867C329.201 210.391 331.867 210.791 332.534 212.525Z" fill="#0B2369"/>
<path d="M371.066 196.658C369.333 196.925 366.799 198.791 365.333 200.658C362.799 203.858 362.666 205.991 362.666 232.525V261.058H369.999H377.333V251.058V240.925L391.733 241.325L405.999 241.725V251.458V261.058H413.733H421.333V228.391V195.725L397.733 195.858C384.666 195.991 372.666 196.391 371.066 196.658ZM406.399 218.658L405.999 227.058H391.999H377.999L377.599 220.525C376.933 210.258 376.799 210.391 392.666 210.391H406.799L406.399 218.658Z" fill="#0B2369"/>
<path d="M437.066 228.391L436.666 261.058H444.399H451.999V228.391V195.725H444.666H437.466L437.066 228.391Z" fill="#0B2369"/>
</svg>
