<svg id="mb-stern_10" xmlns="http://www.w3.org/2000/svg" xmlns:xlink="http://www.w3.org/1999/xlink" viewBox="0 0 2500 2500"><defs><linearGradient id="linear-gradient" x1="1177.28" y1="1215.18" x2="1225.28" y2="1255.38" gradientTransform="translate(-45675 -47003.13) scale(39.06)" gradientUnits="userSpaceOnUse"><stop offset="0" stop-color="#fff"/><stop offset="0.1" stop-color="#e7e8e6"/><stop offset="0.1" stop-color="#cdd0d0"/><stop offset="0.2" stop-color="#b5bbbd"/><stop offset="0.2" stop-color="#a5acaf"/><stop offset="0.3" stop-color="#9ba3a7"/><stop offset="0.3" stop-color="#98a0a4"/><stop offset="0.4" stop-color="#828a8f"/><stop offset="0.5" stop-color="#667075"/><stop offset="0.6" stop-color="#535c63"/><stop offset="0.7" stop-color="#475158"/><stop offset="0.8" stop-color="#434d54"/><stop offset="1" stop-color="#475157"/></linearGradient><linearGradient id="linear-gradient-2" x1="1178.75" y1="1216.34" x2="1223.75" y2="1254.14" gradientTransform="translate(-45675 -47003.13) scale(39.06)" gradientUnits="userSpaceOnUse"><stop offset="0" stop-color="#0b1f2a"/><stop offset="0.2" stop-color="#333f47"/><stop offset="0.5" stop-color="#777f84"/><stop offset="0.5" stop-color="#81898d"/><stop offset="0.7" stop-color="#b3b8b8"/><stop offset="0.8" stop-color="#d2d5d3"/><stop offset="0.8" stop-color="#dee0dd"/><stop offset="1" stop-color="#fbfbfb"/></linearGradient><linearGradient id="linear-gradient-3" x1="2879.46" y1="1491.66" x2="2901.36" y2="1551.86" gradientTransform="translate(114155.98 60692.46) rotate(180) scale(39.06)" gradientUnits="userSpaceOnUse"><stop offset="0" stop-color="#e1e3e1"/><stop offset="0.1" stop-color="#c1c5c4"/><stop offset="0.3" stop-color="#9ba1a2"/><stop offset="0.5" stop-color="#7d8487"/><stop offset="0.7" stop-color="#687074" stop-opacity="0"/><stop offset="0.8" stop-color="#5b6469" stop-opacity="0"/><stop offset="1" stop-color="#576065" stop-opacity="0"/></linearGradient><linearGradient id="linear-gradient-4" x1="1187.48" y1="1211.38" x2="1215.08" y2="1259.18" gradientTransform="translate(-45675 -47003.13) scale(39.06)" xlink:href="#linear-gradient-3"/><linearGradient id="linear-gradient-5" x1="1213.77" y1="1242.67" x2="1212.07" y2="1245.47" gradientTransform="translate(-45675 -47003.13) scale(39.06)" gradientUnits="userSpaceOnUse"><stop offset="0" stop-color="#27343c"/><stop offset="1" stop-color="#00111e" stop-opacity="0"/></linearGradient><linearGradient id="linear-gradient-6" x1="1208.86" y1="1232.39" x2="1206.06" y2="1227.89" gradientTransform="translate(-45675 -47003.13) scale(39.06)" gradientUnits="userSpaceOnUse"><stop offset="0.1" stop-color="#02131f"/><stop offset="0.9" stop-color="#02131f" stop-opacity="0"/></linearGradient><linearGradient id="linear-gradient-7" x1="1201.26" y1="1239.62" x2="1197.06" y2="1240.82" gradientTransform="translate(-45675 -47003.13) scale(39.06)" gradientUnits="userSpaceOnUse"><stop offset="0.2" stop-color="#02131f"/><stop offset="0.9" stop-color="#02131f" stop-opacity="0"/></linearGradient><linearGradient id="linear-gradient-8" x1="1190.07" y1="1245.18" x2="1189.47" y2="1243.68" gradientTransform="translate(-45675 -47003.13) scale(39.06)" gradientUnits="userSpaceOnUse"><stop offset="0" stop-color="#02131f"/><stop offset="0.1" stop-color="#02131f"/><stop offset="1" stop-color="#02131f" stop-opacity="0"/></linearGradient><linearGradient id="linear-gradient-9" x1="1204.88" y1="1220.49" x2="1201.48" y2="1220.89" gradientTransform="translate(-45675 -47003.13) scale(39.06)" gradientUnits="userSpaceOnUse"><stop offset="0.3" stop-color="#02131f"/><stop offset="0.8" stop-color="#02131f" stop-opacity="0"/></linearGradient><linearGradient id="linear-gradient-10" x1="1204.99" y1="1220.44" x2="1202.69" y2="1220.74" gradientTransform="translate(-45675 -47003.13) scale(39.06)" gradientUnits="userSpaceOnUse"><stop offset="0.4" stop-color="#27343c"/><stop offset="1" stop-color="#3b474e" stop-opacity="0"/></linearGradient><linearGradient id="linear-gradient-11" x1="1168.92" y1="1236.11" x2="1196.82" y2="1252.21" gradientTransform="translate(-45675 -47003.13) scale(39.06)" gradientUnits="userSpaceOnUse"><stop offset="0" stop-color="#24303a" stop-opacity="0"/><stop offset="0" stop-color="#25323b" stop-opacity="0"/><stop offset="0.1" stop-color="#27343c"/></linearGradient><linearGradient id="linear-gradient-12" x1="1201.23" y1="1240.68" x2="1201.23" y2="1235.88" gradientTransform="translate(-45675 -47003.13) scale(39.06)" gradientUnits="userSpaceOnUse"><stop offset="0.3" stop-color="#a5abaf"/><stop offset="1" stop-color="#a5abaf" stop-opacity="0"/></linearGradient><linearGradient id="linear-gradient-13" x1="1216.93" y1="1205.58" x2="1216.93" y2="1266.58" gradientTransform="translate(-45675 -47003.13) scale(39.06)" gradientUnits="userSpaceOnUse"><stop offset="0" stop-color="#dee0dd"/><stop offset="0" stop-color="#c5c9c7"/><stop offset="0" stop-color="#9ea4a5"/><stop offset="0" stop-color="#82898c"/><stop offset="0" stop-color="#71797d"/><stop offset="0" stop-color="#6b7378"/><stop offset="0.2" stop-color="#333f47"/><stop offset="0.5" stop-color="#27343c"/><stop offset="0.8" stop-color="#333f47"/><stop offset="1" stop-color="#434d54"/></linearGradient><linearGradient id="linear-gradient-14" x1="1201.28" y1="1203.98" x2="1201.58" y2="1203.98" xlink:href="#linear-gradient-13"/><linearGradient id="linear-gradient-15" x1="1226.57" y1="1211.37" x2="1213.07" y2="1231.17" gradientTransform="translate(-45675 -47003.13) scale(39.06)" gradientUnits="userSpaceOnUse"><stop offset="0.7" stop-color="#27343c"/><stop offset="0.7" stop-color="#2b373f"/><stop offset="0.7" stop-color="#36424a"/><stop offset="0.7" stop-color="#49545b"/><stop offset="0.8" stop-color="#646d73" stop-opacity="0"/><stop offset="0.8" stop-color="#868d92" stop-opacity="0"/><stop offset="0.8" stop-color="#b0b5b8" stop-opacity="0"/><stop offset="0.8" stop-color="#e1e3e4" stop-opacity="0"/><stop offset="0.8" stop-color="#fff" stop-opacity="0"/></linearGradient></defs><path id="outer" d="M2472.66,1250c0,675.78-546.88,1222.66-1222.66,1222.66S27.34,1925.78,27.34,1250,574.22,27.34,1250,27.34,2472.66,574.22,2472.66,1250ZM1250,101.56C613.28,101.56,101.56,613.28,101.56,1250S617.19,2398.44,1250,2398.44c636.72,0,1148.44-515.63,1148.44-1148.44C2398.44,613.28,1886.72,101.56,1250,101.56Z" fill="url(#linear-gradient)"/><path d="M1250,101.56C613.28,101.56,101.56,613.28,101.56,1250S617.19,2398.44,1250,2398.44c636.72,0,1148.44-515.63,1148.44-1148.44C2398.44,613.28,1886.72,101.56,1250,101.56Zm0,2222.66c-593.75,0-1074.22-480.47-1074.22-1074.22S656.25,175.78,1250,175.78,2324.22,656.25,2324.22,1250,1843.75,2324.22,1250,2324.22Z" fill="url(#linear-gradient-2)"/><path d="M1250,2472.66c675.78,0,1222.66-546.88,1222.66-1222.66S1925.78,27.34,1250,27.34,27.34,574.22,27.34,1250,574.22,2472.66,1250,2472.66ZM1250,0c687.5,0,1250,562.5,1250,1250S1937.5,2500,1250,2500,0,1937.5,0,1250,562.5,0,1250,0Z" opacity="0.4" fill="url(#linear-gradient-3)" style="isolation:isolate"/><path d="M85.94,1253.91c0-640.63,519.53-1168,1164.06-1168s1164.06,523.43,1164.06,1168c0,640.62-519.53,1160.15-1164.06,1160.15S85.94,1894.53,85.94,1253.91ZM449.22,449.22c-207,207-335.94,492.19-335.94,804.69s128.91,597.65,332,800.78c207,203.12,492.19,332,804.69,332s597.66-125,800.78-332c207-203.13,332-488.28,332-800.78s-128.9-597.66-332-804.69a1122.38,1122.38,0,0,0-1601.56,0Z" fill="#fff"/><path d="M1250,2328.12c-289.06,0-558.59-113.28-761.72-316.4S171.88,1539.06,171.88,1250s113.28-558.59,316.4-761.72S960.94,171.88,1250,171.88s558.59,113.28,761.72,316.4,316.4,472.66,316.4,761.72-113.28,558.59-316.4,761.72S1539.06,2328.12,1250,2328.12Zm0-31.25c277.34,0,543-109.37,738.28-304.68C2187.5,1793,2293,1531.25,2293,1253.91s-109.38-543-304.69-738.29C1789.06,316.41,1527.34,210.94,1250,210.94S707,320.31,511.72,515.63C312.5,707,203.12,972.66,203.12,1250s109.38,543,304.69,738.28C707,2187.5,972.66,2296.88,1250,2296.88Z" opacity="0.4" fill="url(#linear-gradient-4)" style="isolation:isolate"/><path d="M2199.22,1757.81c-19.53-15.62-773.44-613.28-773.44-613.28L1250,140.62c-11.72,3.91-27.34,15.63-35.16,31.26l-125,976.56L312.5,1746.09s-15.63,19.54-23.44,31.25c-3.9,7.82-3.9,19.54-3.9,31.25l960.93-394.53L2207,1808.59c7.81-19.53,0-39.06-7.81-50.78Z" fill="#fff"/><path d="M1257.81,1281.25,1250,1460.94l882.81,355.47c31.25,15.62,54.69,7.81,78.13-7.82l-941.41-531.25C1265.63,1273.44,1257.81,1277.34,1257.81,1281.25Z" fill="#565f64"/><path d="M1257.81,1281.25s50.78,89.84,109.38,152.34c82,89.85,191.4,152.35,191.4,152.35l574.22,230.47c31.25,15.62,54.69,7.81,78.13-7.82l-941.41-531.25C1265.63,1273.44,1257.81,1277.34,1257.81,1281.25Z" fill="url(#linear-gradient-5)"/><path d="M2207,1773.44c0-3.91-3.9-7.81-7.81-15.63L1394.53,1168l-109.37,70.31s7.81,3.91,11.72,0c11.71-3.91,35.15-7.81,58.59,0C1375,1246.09,2207,1777.34,2207,1773.44Z" fill="#a4aaae" fill-opacity="0.6"/><path d="M2179.69,1738.28l-750-593.75L1394.53,1168l804.69,593.75c-3.91-7.81-11.72-15.63-19.53-23.44Z" fill="#333e46"/><path d="M1269.53,1222.66l-3.9,3.9s0,7.82,7.81,3.91c3.9-3.91,117.19-62.5,156.25-85.94L1293,207c-3.91-35.16-19.53-50.78-46.88-62.5l15.63,1085.94,7.81-7.81Z" fill="#565f64"/><path d="M1203.12,207v50.78l-85.93,863.28c0,11.72,3.9,23.44,15.62,31.25l50.78,39.07,35.16-953.13,3.91-74.22c-11.72,7.82-15.63,23.44-19.54,43Zm-46.87,1000L1109.37,1168l-793,574.22s-23.44,15.62-27.35,31.25l27.35-15.63,832-523.44c15.62-7.81,19.53-15.62,7.81-27.34Z" fill="#a4aaae" fill-opacity="0.6"/><path d="M1238.28,1281.25c0-3.91-3.9-7.81-7.81-3.91L285.16,1812.5c23.43,15.63,46.87,19.53,78.12,7.81l882.81-355.47Z" fill="#565f64"/><path d="M1265.63,1226.56l3.9-3.9-3.9,3.9s0,3.91,3.9,3.91h3.91c3.9-3.91,117.18-62.5,156.25-85.94l-15.63-113.28L1293,207q0-23.43-11.72-35.16s58.59,789.07,58.59,875c0,113.29-74.22,179.69-74.22,179.69Z" fill="url(#linear-gradient-6)"/><path d="M1238.28,1281.25c0-3.91-3.9-7.81-7.81-3.91L285.16,1812.5c23.43,15.63,46.87,19.53,78.12,7.81l882.81-355.47Z" fill-opacity="0.8" fill="url(#linear-gradient-7)"/><path d="M363.28,1816.41l882.81-355.47-7.81-171.88c-15.62,46.88-43,97.66-117.19,136.72C1066.41,1457,543,1714.84,355.47,1804.69c-11.72,7.81-27.34,11.72-35.16,15.62,15.63,7.82,27.35,3.91,43-3.9Z" opacity="0.8" fill="url(#linear-gradient-8)" style="isolation:isolate"/><path d="M1269.53,1222.66l-3.9,3.9s0,7.82,7.81,3.91c3.9-3.91,117.19-62.5,156.25-85.94L1293,207c-3.91-35.16-19.53-50.78-46.88-62.5l15.63,1085.94,7.81-7.81Z" fill="url(#linear-gradient-9)"/><path d="M1269.53,1222.66l-3.9,3.9s0,7.82,7.81,3.91c3.9-3.91,117.19-62.5,156.25-85.94L1293,207c-3.91-35.16-19.53-50.78-46.88-62.5l15.63,1085.94,7.81-7.81Z" fill="url(#linear-gradient-10)"/><path d="M199.22,1734.38c-27.34-62.51-183.59-367.19-11.72-953.13H121.09c-35.15,117.19-62.5,187.5-78.12,293,0,0-7.81,39.06-11.72,82s-3.91,66.41-3.91,93.75c0,234.38,58.6,371.09,58.6,371.09,62.5,195.32,171.87,371.1,320.31,503.91,128.91,113.28,328.12,199.22,492.19,230.47-27.35-3.91-496.1-203.13-699.22-621.09Z" fill="url(#linear-gradient-11)"/><path d="M1265.63,1273.44h-35.16c3.91,0,7.81,0,7.81,3.9l7.81,179.69H1250l7.81-179.69c0-3.9,3.91-7.81,7.82-3.9Z" fill="url(#linear-gradient-12)"/><path d="M1640.62,89.84c410.16,156.25,796.88,585.94,796.88,1128.91,0,656.25-523.44,1191.41-1187.5,1191.41v62.5c664.06,0,1222.66-546.88,1222.66-1222.66,0-539.06-343.75-992.19-832-1160.16Z" fill="url(#linear-gradient-13)"/><path d="M1261.72,27.34h0Z" fill="url(#linear-gradient-14)"/><path d="M2296.87,789.06c-273.43-628.9-890.62-664.06-925.78-668h-3.9c472.65,85.94,773.43,394.54,878.9,718.75v3.91c46.88,125,70.32,257.81,74.22,402.34,3.91,136.72-27.34,289.07-85.93,429.69-3.91,19.53-7.82,43-11.72,43h62.5C2472.66,1367.19,2390.63,1011.72,2296.87,789.06Z" fill="url(#linear-gradient-15)"/><path d="M85.94,1253.91c0-640.63,519.53-1168,1164.06-1168s1164.06,523.43,1164.06,1168c0,640.62-519.53,1160.15-1164.06,1160.15S85.94,1894.53,85.94,1253.91ZM449.22,449.22c-207,207-335.94,492.19-335.94,804.69s128.91,597.65,332,800.78c207,203.12,492.19,332,804.69,332s597.66-125,800.78-332c207-203.13,332-488.28,332-800.78s-128.9-597.66-332-804.69a1122.38,1122.38,0,0,0-1601.56,0Z" fill="#fbfbfb"/><path d="M308.59,1750l796.88-574.22c43,23.44,113.28,54.69,121.09,54.69,7.82,3.9,7.82-3.91,7.82-3.91l-97.66-82c-11.72-7.81-15.63-19.53-15.63-31.25l93.75-941.41c-3.9,3.91-3.9,11.72-7.81,15.63-3.91,7.81-3.91,11.72-3.91,19.53l-136.71,941.41-750,589.84c-3.91,3.91-7.82,7.81-7.82,11.72Z" fill="#333f47"/></svg>