<svg id="Layer_1" data-name="Layer 1" xmlns="http://www.w3.org/2000/svg" viewBox="0 0 24 24"><path d="M12,22.59A10.62,10.62,0,0,1,1.46,12a10.42,10.42,0,0,1,.6-3.47l6.17,12c.08.17.17.3.38.3s.3-.13.39-.3l2.87-6.39c0-.08.09-.13.13-.13s.09.09.13.13L15,20.53c.09.17.17.3.39.3s.3-.13.38-.3L22,8.53a10.32,10.32,0,0,1,.6,3.47A10.7,10.7,0,0,1,12,22.59ZM12,9.26c-.09,0-.09-.09-.13-.13L8.57,2a10.22,10.22,0,0,1,6.86,0l-3.3,7.12S12.09,9.26,12,9.26ZM8.53,17c-.09,0-.09-.08-.13-.13L3,6.47A10.82,10.82,0,0,1,6.9,2.74L10.71,11c.09.17.18.21.3.21h2c.12,0,.21,0,.3-.21l3.77-8.23A11,11,0,0,1,21,6.47L15.6,16.84c0,.09-.09.13-.13.13s-.08-.08-.13-.13L13.29,12.3c-.09-.17-.18-.21-.3-.21H11c-.12,0-.21,0-.3.21L8.66,16.84C8.61,16.89,8.61,17,8.53,17ZM12,24A12,12,0,1,0,0,12,12,12,0,0,0,12,24Z"/></svg>